<svg width="25" height="24" viewBox="0 0 25 24" fill="none" xmlns="http://www.w3.org/2000/svg">
<circle cx="12.5" cy="12" r="12" fill="#222222"/>
<g clip-path="url(#clip0_19_36)">
<path d="M15.3065 13.758C16.0327 12.767 16.358 11.5384 16.2172 10.3179C16.0765 9.09737 15.4801 7.97502 14.5473 7.17536C13.6146 6.37571 12.4143 5.95772 11.1866 6.00502C9.95894 6.05233 8.79439 6.56144 7.92595 7.4305C7.05752 8.29955 6.54924 9.46447 6.50281 10.6922C6.45639 11.9199 6.87523 13.1199 7.67556 14.052C8.47588 14.9842 9.59866 15.5798 10.8193 15.7197C12.0399 15.8596 13.2683 15.5334 14.2588 14.8065H14.258C14.2805 14.8365 14.3045 14.865 14.3315 14.8928L17.219 17.7803C17.3596 17.921 17.5504 18.0001 17.7494 18.0002C17.9483 18.0002 18.1391 17.9213 18.2799 17.7806C18.4206 17.64 18.4997 17.4492 18.4998 17.2503C18.4998 17.0513 18.4209 16.8605 18.2803 16.7198L15.3928 13.8323C15.3659 13.8051 15.3371 13.78 15.3065 13.7573V13.758ZM15.5 10.875C15.5 11.4167 15.3933 11.9531 15.186 12.4536C14.9787 12.9541 14.6749 13.4088 14.2918 13.7918C13.9088 14.1749 13.454 14.4787 12.9536 14.686C12.4531 14.8933 11.9167 15 11.375 15C10.8333 15 10.2969 14.8933 9.79643 14.686C9.29596 14.4787 8.84123 14.1749 8.45819 13.7918C8.07514 13.4088 7.7713 12.9541 7.564 12.4536C7.3567 11.9531 7.25 11.4167 7.25 10.875C7.25 9.781 7.6846 8.73179 8.45819 7.9582C9.23177 7.18461 10.281 6.75001 11.375 6.75001C12.469 6.75001 13.5182 7.18461 14.2918 7.9582C15.0654 8.73179 15.5 9.781 15.5 10.875Z" fill="white"/>
</g>
<defs>
<clipPath id="clip0_19_36">
<rect width="12" height="12" fill="white" transform="translate(6.5 6)"/>
</clipPath>
</defs>
</svg>
