<svg width="65" height="64" viewBox="0 0 65 64" fill="none" xmlns="http://www.w3.org/2000/svg">
<g clip-path="url(#clip0_30_479)">
<path d="M18.5081 36C20.0994 36 21.6255 35.3679 22.7507 34.2426C23.8759 33.1174 24.5081 31.5913 24.5081 30C24.5081 28.4087 23.8759 26.8826 22.7507 25.7574C21.6255 24.6321 20.0994 24 18.5081 24C16.9168 24 15.3906 24.6321 14.2654 25.7574C13.1402 26.8826 12.5081 28.4087 12.5081 30C12.5081 31.5913 13.1402 33.1174 14.2654 34.2426C15.3906 35.3679 16.9168 36 18.5081 36Z" fill="#222222"/>
<path d="M56.5081 52C56.5081 54.1217 55.6652 56.1566 54.1649 57.6569C52.6646 59.1571 50.6298 60 48.5081 60H8.50806C6.38632 60 4.35149 59.1571 2.8512 57.6569C1.35091 56.1566 0.508057 54.1217 0.508057 52V20C0.508056 17.8797 1.34981 15.846 2.84837 14.346C4.34693 12.8459 6.37971 12.0021 8.50006 12C8.50006 9.87827 9.34291 7.84344 10.8432 6.34315C12.3435 4.84285 14.3783 4 16.5001 4H56.5001C58.6218 4 60.6566 4.84285 62.1569 6.34315C63.6572 7.84344 64.5001 9.87827 64.5001 12V44C64.5001 46.1203 63.6583 48.154 62.1597 49.654C60.6612 51.1541 58.6284 51.9979 56.5081 52ZM56.5001 8H16.5001C15.4392 8 14.4218 8.42143 13.6716 9.17157C12.9215 9.92172 12.5001 10.9391 12.5001 12H48.5081C50.6298 12 52.6646 12.8429 54.1649 14.3431C55.6652 15.8434 56.5081 17.8783 56.5081 20V48C57.5675 47.9979 58.5829 47.5755 59.3313 46.8256C60.0797 46.0757 60.5001 45.0595 60.5001 44V12C60.5001 10.9391 60.0786 9.92172 59.3285 9.17157C58.5783 8.42143 57.5609 8 56.5001 8ZM8.50806 16C7.44719 16 6.42978 16.4214 5.67963 17.1716C4.92948 17.9217 4.50806 18.9391 4.50806 20V52L15.0921 42.584C15.419 42.2583 15.8485 42.0556 16.3078 42.0104C16.7671 41.9652 17.2279 42.0802 17.6121 42.336L28.2521 49.428L43.0921 34.588C43.3887 34.2911 43.7712 34.095 44.1854 34.0275C44.5996 33.9601 45.0245 34.0246 45.4001 34.212L52.5081 42V20C52.5081 18.9391 52.0866 17.9217 51.3365 17.1716C50.5863 16.4214 49.5689 16 48.5081 16H8.50806Z" fill="#222222"/>
</g>
<defs>
<clipPath id="clip0_30_479">
<rect width="64" height="64" fill="white" transform="translate(0.5)"/>
</clipPath>
</defs>
</svg>
