<svg width="32" height="32" viewBox="0 0 32 32" fill="none" xmlns="http://www.w3.org/2000/svg">
<g clip-path="url(#clip0_30_536)">
<path d="M12.0039 11C12.0039 11.7956 11.6878 12.5587 11.1252 13.1213C10.5626 13.6839 9.79956 14 9.00391 14C8.20826 14 7.44519 13.6839 6.88259 13.1213C6.31998 12.5587 6.00391 11.7956 6.00391 11C6.00391 10.2044 6.31998 9.44129 6.88259 8.87868C7.44519 8.31607 8.20826 8 9.00391 8C9.79956 8 10.5626 8.31607 11.1252 8.87868C11.6878 9.44129 12.0039 10.2044 12.0039 11Z" fill="#222222"/>
<path d="M4.00391 2C2.94304 2 1.92562 2.42143 1.17548 3.17157C0.425334 3.92172 0.00390625 4.93913 0.00390625 6V26C0.00390625 27.0609 0.425334 28.0783 1.17548 28.8284C1.92562 29.5786 2.94304 30 4.00391 30H28.0039C29.0648 30 30.0822 29.5786 30.8323 28.8284C31.5825 28.0783 32.0039 27.0609 32.0039 26V6C32.0039 4.93913 31.5825 3.92172 30.8323 3.17157C30.0822 2.42143 29.0648 2 28.0039 2H4.00391ZM28.0039 4C28.5343 4 29.043 4.21071 29.4181 4.58579C29.7932 4.96086 30.0039 5.46957 30.0039 6V19L22.4499 15.106C22.2624 15.012 22.05 14.9795 21.8429 15.0128C21.6358 15.0462 21.4444 15.1439 21.2959 15.292L13.8759 22.712L8.55591 19.168C8.36383 19.0401 8.13343 18.9826 7.90378 19.0052C7.67414 19.0278 7.45937 19.1291 7.29591 19.292L2.00391 24V6C2.00391 5.46957 2.21462 4.96086 2.58969 4.58579C2.96477 4.21071 3.47347 4 4.00391 4H28.0039Z" fill="#222222"/>
</g>
<defs>
<clipPath id="clip0_30_536">
<rect width="32" height="32" fill="white"/>
</clipPath>
</defs>
</svg>
